# xmcd CD database file
#
# Track frame offsets:
#	150
#	19705
#	37185
#	38310
#	60813
#	85055
#	100318
#	119058
#	139055
#	160865
#	173645
#	195353
#	209518
#	228273
#
# Disc length: 3262 seconds
#
# Revision: 0
# Processed by: cddbd v1.5.1PL0 Copyright (c) Steve Scherf et al.
# Submitted via: CDex 1.50
#
DISCID=ac0cbc0e
DTITLE=Kevin Purcell and the Nightburners - Movin' In For The Kill
DYEAR=1992
DGENRE=Jazz
TTITLE0=One Good Reason
TTITLE1=Life's Been Good
TTITLE2=Chicken Scraps
TTITLE3=Movin' In For The Kill
TTITLE4=Dark and Cold
TTITLE5=Fire From Hell
TTITLE6=Funks Grove
TTITLE7=The Ballad of Bad Ass and Sonny
TTITLE8=Tomorrow I'll Be Gone
TTITLE9=Wouldn't Change A Thing
TTITLE10=Lost Heroes
TTITLE11=Can't Come Back
TTITLE12=Aftershock
TTITLE13=Backstabbin' Woman
EXTD=YEAR: 1992
EXTT0=
EXTT1=
EXTT2=
EXTT3=
EXTT4=
EXTT5=
EXTT6=
EXTT7=
EXTT8=
EXTT9=
EXTT10=
EXTT11=
EXTT12=
EXTT13=
PLAYORDER=
